<svg width="32" height="32" viewBox="0 0 32 32" fill="none" xmlns="http://www.w3.org/2000/svg">
  <!-- Stylized floral icon based on brand guide -->
  <path d="M16 4C16 4 8 8 8 16C8 24 16 28 16 28C16 28 24 24 24 16C24 8 16 4 16 4Z" fill="currentColor" fill-opacity="0.2"/>
  <path d="M16 6C16 6 10 9 10 16C10 23 16 26 16 26C16 26 22 23 22 16C22 9 16 6 16 6Z" stroke="currentColor" stroke-width="1.5" fill="none"/>
  <circle cx="16" cy="16" r="4" fill="currentColor"/>
  <path d="M12 12C12 12 14 10 16 12C18 10 20 12 20 12" stroke="currentColor" stroke-width="1.5" fill="none"/>
  <path d="M12 20C12 20 14 22 16 20C18 22 20 20 20 20" stroke="currentColor" stroke-width="1.5" fill="none"/>
</svg>